HIERARCHY
ROOT Hips
{
  OFFSET 5.80788e-005 67.184 3.4734
  CHANNELS 6 Xposition Yposition Zposition Zrotation Xrotation Yrotation
  JOINT Chest
  {
    OFFSET 0 8.7983 -4.7612
    CHANNELS 6 Xposition Yposition Zposition Zrotation Xrotation Yrotation
    JOINT Chest2
    {
      OFFSET 0 8.0291 0.4195
      CHANNELS 6 Xposition Yposition Zposition Zrotation Xrotation Yrotation
      JOINT Chest3
      {
        OFFSET 0 9.9351 -2.2114
        CHANNELS 6 Xposition Yposition Zposition Zrotation Xrotation Yrotation
        JOINT Neck
        {
          OFFSET 0 22.3885 -0.4656
          CHANNELS 6 Xposition Yposition Zposition Zrotation Xrotation Yrotation
          JOINT Head
          {
            OFFSET -0.0001 12.643 3.4389
            CHANNELS 6 Xposition Yposition Zposition Zrotation Xrotation Yrotation
            End Site
            {
              OFFSET 0.0001 17.6655 0.5274
            }
          }
        }
        JOINT LeftCollar
        {
          OFFSET 2.2603 21.606 7.4023
          CHANNELS 6 Xposition Yposition Zposition Zrotation Xrotation Yrotation
          JOINT LeftShoulder
          {
            OFFSET 13.5163 -1.1332 -5.0146
            CHANNELS 6 Xposition Yposition Zposition Zrotation Xrotation Yrotation
            JOINT LeftElbow
            {
              OFFSET -0.0995 -28.05 -0.2431
              CHANNELS 6 Xposition Yposition Zposition Zrotation Xrotation Yrotation
              JOINT LeftWrist
              {
                OFFSET 0.0679 -23.3996 -0.1402
                CHANNELS 6 Xposition Yposition Zposition Zrotation Xrotation Yrotation
                JOINT LeftFinger1
                {
                  OFFSET 0.7932 -9.069 2.5189
                  CHANNELS 6 Xposition Yposition Zposition Zrotation Xrotation Yrotation
                  JOINT LeftFinger11
                  {
                    OFFSET -0.8272 -3.3923 0.5977
                    CHANNELS 6 Xposition Yposition Zposition Zrotation Xrotation Yrotation
                    JOINT LeftFinger12
                    {
                      OFFSET -0.5649 -2.3158 0.4082
                      CHANNELS 6 Xposition Yposition Zposition Zrotation Xrotation Yrotation
                      End Site
                      {
                        OFFSET -0.4919 -1.6479 0.2673
                      }
                    }
                  }
                }
                JOINT LeftFinger2
                {
                  OFFSET 0.9159 -9.2044 0.2193
                  CHANNELS 6 Xposition Yposition Zposition Zrotation Xrotation Yrotation
                  JOINT LeftFinger21
                  {
                    OFFSET 0.0117 -4.1944 -0.0248
                    CHANNELS 6 Xposition Yposition Zposition Zrotation Xrotation Yrotation
                    JOINT LeftFinger22
                    {
                      OFFSET 0.0071 -2.3249 -0.0142
                      CHANNELS 6 Xposition Yposition Zposition Zrotation Xrotation Yrotation
                      End Site
                      {
                        OFFSET -0.1475 -2.0882 0.0028
                      }
                    }
                  }
                }
                JOINT LeftFinger3
                {
                  OFFSET 0.6113 -8.7231 -2.0637
                  CHANNELS 6 Xposition Yposition Zposition Zrotation Xrotation Yrotation
                  JOINT LeftFinger31
                  {
                    OFFSET -0.1927 -3.8059 -0.2383
                    CHANNELS 6 Xposition Yposition Zposition Zrotation Xrotation Yrotation
                    JOINT LeftFinger32
                    {
                      OFFSET -0.1091 -2.1688 -0.1362
                      CHANNELS 6 Xposition Yposition Zposition Zrotation Xrotation Yrotation
                      End Site
                      {
                        OFFSET -0.2358 -1.9176 -0.0906
                      }
                    }
                  }
                }
                JOINT LeftFinger4
                {
                  OFFSET -0.6151 -8.0947 -3.5641
                  CHANNELS 6 Xposition Yposition Zposition Zrotation Xrotation Yrotation
                  JOINT LeftFinger41
                  {
                    OFFSET -0.4882 -2.341 -0.6462
                    CHANNELS 6 Xposition Yposition Zposition Zrotation Xrotation Yrotation
                    JOINT LeftFinger42
                    {
                      OFFSET -0.3575 -1.7167 -0.4742
                      CHANNELS 6 Xposition Yposition Zposition Zrotation Xrotation Yrotation
                      End Site
                      {
                        OFFSET -0.4187 -1.5237 -0.3496
                      }
                    }
                  }
                }
                JOINT LeftFinger0
                {
                  OFFSET -1.42 -1.8761 1.4223
                  CHANNELS 6 Xposition Yposition Zposition Zrotation Xrotation Yrotation
                  JOINT LeftFinger01
                  {
                    OFFSET -1.1471 -3.4929 2.6334
                    CHANNELS 6 Xposition Yposition Zposition Zrotation Xrotation Yrotation
                    JOINT LeftFinger02
                    {
                      OFFSET -0.823 -2.3 1.6571
                      CHANNELS 6 Xposition Yposition Zposition Zrotation Xrotation Yrotation
                      End Site
                      {
                        OFFSET -0.5822 -1.6914 1.1582
                      }
                    }
                  }
                }
              }
            }
          }
        }
        JOINT RightCollar
        {
          OFFSET -2.2603 21.606 7.4023
          CHANNELS 6 Xposition Yposition Zposition Zrotation Xrotation Yrotation
          JOINT RightShoulder
          {
            OFFSET -13.5187 -1.1334 -5.0155
            CHANNELS 6 Xposition Yposition Zposition Zrotation Xrotation Yrotation
            JOINT RightElbow
            {
              OFFSET 0.0994 -28.0499 -0.2431
              CHANNELS 6 Xposition Yposition Zposition Zrotation Xrotation Yrotation
              JOINT RightWrist
              {
                OFFSET -0.0679 -23.3996 -0.1402
                CHANNELS 6 Xposition Yposition Zposition Zrotation Xrotation Yrotation
                JOINT RightFinger1
                {
                  OFFSET -0.7932 -9.0691 2.5189
                  CHANNELS 6 Xposition Yposition Zposition Zrotation Xrotation Yrotation
                  JOINT RightFinger11
                  {
                    OFFSET 0.8272 -3.3923 0.5977
                    CHANNELS 6 Xposition Yposition Zposition Zrotation Xrotation Yrotation
                    JOINT RightFinger12
                    {
                      OFFSET 0.565 -2.3158 0.4082
                      CHANNELS 6 Xposition Yposition Zposition Zrotation Xrotation Yrotation
                      End Site
                      {
                        OFFSET 0.4919 -1.6479 0.2673
                      }
                    }
                  }
                }
                JOINT RightFinger2
                {
                  OFFSET -0.916 -9.2044 0.2193
                  CHANNELS 6 Xposition Yposition Zposition Zrotation Xrotation Yrotation
                  JOINT RightFinger21
                  {
                    OFFSET -0.0117 -4.1944 -0.0248
                    CHANNELS 6 Xposition Yposition Zposition Zrotation Xrotation Yrotation
                    JOINT RightFinger22
                    {
                      OFFSET -0.0071 -2.3249 -0.0142
                      CHANNELS 6 Xposition Yposition Zposition Zrotation Xrotation Yrotation
                      End Site
                      {
                        OFFSET 0.1475 -2.0882 0.0028
                      }
                    }
                  }
                }
                JOINT RightFinger3
                {
                  OFFSET -0.6113 -8.7231 -2.0637
                  CHANNELS 6 Xposition Yposition Zposition Zrotation Xrotation Yrotation
                  JOINT RightFinger31
                  {
                    OFFSET 0.1927 -3.8059 -0.2383
                    CHANNELS 6 Xposition Yposition Zposition Zrotation Xrotation Yrotation
                    JOINT RightFinger32
                    {
                      OFFSET 0.1091 -2.1688 -0.1362
                      CHANNELS 6 Xposition Yposition Zposition Zrotation Xrotation Yrotation
                      End Site
                      {
                        OFFSET 0.2358 -1.9176 -0.0906
                      }
                    }
                  }
                }
                JOINT RightFinger4
                {
                  OFFSET 0.6151 -8.0947 -3.564
                  CHANNELS 6 Xposition Yposition Zposition Zrotation Xrotation Yrotation
                  JOINT RightFinger41
                  {
                    OFFSET 0.4882 -2.341 -0.6462
                    CHANNELS 6 Xposition Yposition Zposition Zrotation Xrotation Yrotation
                    JOINT RightFinger42
                    {
                      OFFSET 0.3574 -1.7166 -0.4742
                      CHANNELS 6 Xposition Yposition Zposition Zrotation Xrotation Yrotation
                      End Site
                      {
                        OFFSET 0.4187 -1.5237 -0.3496
                      }
                    }
                  }
                }
                JOINT RightFinger0
                {
                  OFFSET 1.4199 -1.8761 1.4221
                  CHANNELS 6 Xposition Yposition Zposition Zrotation Xrotation Yrotation
                  JOINT RightFinger01
                  {
                    OFFSET 1.1472 -3.4929 2.6336
                    CHANNELS 6 Xposition Yposition Zposition Zrotation Xrotation Yrotation
                    JOINT RightFinger02
                    {
                      OFFSET 0.8229 -2.3 1.6571
                      CHANNELS 6 Xposition Yposition Zposition Zrotation Xrotation Yrotation
                      End Site
                      {
                        OFFSET 0.5822 -1.6914 1.1582
                      }
                    }
                  }
                }
              }
            }
          }
        }
      }
    }
  }
  JOINT RightHip
  {
    OFFSET -9.412 3.9771 -0.7758
    CHANNELS 6 Xposition Yposition Zposition Zrotation Xrotation Yrotation
    JOINT RightKnee
    {
      OFFSET -0.7531 -40.938 0
      CHANNELS 6 Xposition Yposition Zposition Zrotation Xrotation Yrotation
      JOINT RightAnkle
      {
        OFFSET 0 -40.1986 0
        CHANNELS 6 Xposition Yposition Zposition Zrotation Xrotation Yrotation
        JOINT RightToe
        {
          OFFSET 0 -4.4182 9.239
          CHANNELS 6 Xposition Yposition Zposition Zrotation Xrotation Yrotation
          End Site
          {
            OFFSET 0 0 6.1981
          }
        }
      }
    }
  }
  JOINT LeftHip
  {
    OFFSET 9.4119 3.9773 -0.7758
    CHANNELS 6 Xposition Yposition Zposition Zrotation Xrotation Yrotation
    JOINT LeftKnee
    {
      OFFSET 0.7532 -40.9383 0
      CHANNELS 6 Xposition Yposition Zposition Zrotation Xrotation Yrotation
      JOINT LeftAnkle
      {
        OFFSET 0 -40.1986 0
        CHANNELS 6 Xposition Yposition Zposition Zrotation Xrotation Yrotation
        JOINT LeftToe
        {
          OFFSET 0 -4.4182 9.239
          CHANNELS 6 Xposition Yposition Zposition Zrotation Xrotation Yrotation
          End Site
          {
            OFFSET 0 0 6.1981
          }
        }
      }
    }
  }
}
MOTION
Frames:	4
Frame Time:	0.0333333
5.80788e-005 67.184 3.4734 0 0 -0 0 8.7983 -4.7612 0 0 -0 0 8.0291 0.4195 0 0 -0 0 9.9351 -2.2114 0 0 -0 0 22.3885 -0.4656 0 0 -0 -0.0001 12.643 3.4389 0 0 -0 2.2603 21.606 7.4023 0 0 -12.5014 13.5163 -1.1332 -5.0146 88.1196 14.2451 10.6914 -0.0995 -28.05 -0.2431 -0.00160068 -0.00239207 0.000740045 0.0679 -23.3996 -0.1402 -8.4365e-005 7.00714e-005 -9.52055e-007 0.7932 -9.069 2.5189 9.93923e-017 -1.98785e-016 -1.59028e-015 -0.8272 -3.3923 0.5977 9.93923e-017 -5.96354e-016 -1.59028e-015 -0.5649 -2.3158 0.4082 -9.93923e-017 -5.96354e-016 -1.59028e-015 0.9159 -9.2044 0.2193 9.93923e-017 -1.98785e-016 -1.59028e-015 0.0117 -4.1944 -0.0248 -0.0128176 0.00232552 8.52707e-005 0.0071 -2.3249 -0.0142 9.93923e-017 5.96354e-016 -0 0.6113 -8.7231 -2.0637 9.93923e-017 -1.98785e-016 -1.59028e-015 -0.1927 -3.8059 -0.2383 -0.0160551 0.00299681 0.000857156 -0.1091 -2.1688 -0.1362 -2.48481e-016 0 3.18055e-015 -0.6151 -8.0947 -3.5641 9.93923e-017 -1.98785e-016 -1.59028e-015 -0.4882 -2.341 -0.6462 -0.0125865 0.0031206 0.00282719 -0.3575 -1.7167 -0.4742 0 1.98785e-016 -0 -1.42 -1.8761 1.4223 9.93923e-017 -1.98785e-016 -1.59028e-015 -1.1471 -3.4929 2.6334 9.93923e-017 -5.96354e-016 -1.59028e-015 -0.823 -2.3 1.6571 -9.93923e-017 -5.96354e-016 -1.59028e-015 -2.2603 21.606 7.4023 -0.865644 0.16582 7.03859 -13.5187 -1.1334 -5.0155 -88.0329 10.2057 -10.5567 0.0994 -28.0499 -0.2431 0.0015593 -0.00248883 -0.000788628 -0.0679 -23.3996 -0.1402 7.87605e-005 4.10553e-005 1.24965e-005 -0.7932 -9.0691 2.5189 -3.97569e-016 -7.95139e-016 3.18055e-015 0.8272 -3.3923 0.5977 -1.98785e-016 -3.97569e-016 3.18055e-015 0.565 -2.3158 0.4082 -1.98785e-016 0 3.18055e-015 -0.916 -9.2044 0.2193 -3.97569e-016 -7.95139e-016 3.18055e-015 -0.0117 -4.1944 -0.0248 0.0129473 0.00231697 -8.70038e-005 -0.0071 -2.3249 -0.0142 9.93923e-017 -7.95139e-016 1.59028e-015 -0.6113 -8.7231 -2.0637 -3.97569e-016 -7.95139e-016 3.18055e-015 0.1927 -3.8059 -0.2383 0.0163314 0.00303369 -0.000872333 0.1091 -2.1688 -0.1362 3.97569e-016 7.95139e-016 -3.18055e-015 0.6151 -8.0947 -3.564 -3.97569e-016 -7.95139e-016 3.18055e-015 0.4882 -2.341 -0.6462 0.0145763 0.00367772 -0.00326275 0.3574 -1.7166 -0.4742 9.93923e-017 -3.97569e-016 -0 1.4199 -1.8761 1.4221 -3.97569e-016 -7.95139e-016 3.18055e-015 1.1472 -3.4929 2.6336 -1.98785e-016 -3.97569e-016 3.18055e-015 0.8229 -2.3 1.6571 -1.98785e-016 0 3.18055e-015 -9.412 3.9771 -0.7758 3.42485 1.36937 -0.0640303 -0.7531 -40.938 0 0.000136572 0.69354 0.00145564 1.77636e-015 -40.1986 -1.11022e-016 -3.42573 -2.06297 -0.0607933 8.88178e-016 -4.4182 9.239 -3.19502e-024 0 -1.48106e-024 9.4119 3.9773 -0.7758 -3.42498 1.36123 0.0639712 0.7532 -40.9383 2.22045e-016 -6.769e-005 0.712612 -0.0012277 8.88179e-016 -40.1986 0 3.42582 -2.07388 0.0612819 -8.88178e-016 -4.4182 9.239 2.55305e-023 0 -2.31416e-026 
-6.0447 10.0443 -6.13779 9.17813e-008 -3.00262 -2.72865e-008 0 8.7983 -4.7612 -0.397688 0.743404 3.02444 8.88178e-016 8.0291 0.4195 -0.834153 1.46477 6.05469 0 9.9351 -2.2114 -0.834155 1.46477 6.0547 0 22.3885 -0.4656 13.997 -1.38916e-005 -2.64419e-005 -0.0001 12.643 3.4389 3.29417e-006 -0.491349 6.85657e-006 2.2603 21.606 7.4023 27.1928 6.99349 -86.1094 13.5163 -1.1332 -5.0146 52.7229 -1.1972 32.5027 -0.0995 -28.05 -0.2431 4.84181 -75.113 68.4566 0.0679 -23.3996 -0.1402 -20.2764 13.6893 -30.4605 0.7932 -9.069 2.5189 -1.92497e-006 -5.27712e-006 -8.79633e-006 -0.8272 -3.3923 0.5977 -5.70882e-008 -2.11419e-006 -1.11422e-005 -0.5649 -2.3158 0.4082 6.36111e-015 1.98785e-015 3.97569e-015 0.9159 -9.2044 0.2193 -1.92497e-006 -5.27712e-006 -8.79633e-006 0.0117 -4.1944 -0.0248 -0.0128693 0.00232208 7.99224e-005 0.0071 -2.3249 -0.0142 3.18055e-015 -3.57812e-015 2.38542e-015 0.6113 -8.7231 -2.0637 -1.92497e-006 -5.27712e-006 -8.79633e-006 -0.1927 -3.8059 -0.2383 -0.0160119 0.002993 0.000841321 -0.1091 -2.1688 -0.1362 -1.59028e-014 1.59028e-015 -7.95139e-016 -0.6151 -8.0947 -3.5641 -1.92497e-006 -5.27712e-006 -8.79633e-006 -0.4882 -2.341 -0.6462 -0.0126055 0.00312279 0.00282301 -0.3575 -1.7167 -0.4742 3.18055e-015 1.74931e-014 -0 -1.42 -1.8761 1.4223 -1.92497e-006 -5.27712e-006 -8.79633e-006 -1.1471 -3.4929 2.6334 -5.70882e-008 -2.11419e-006 -1.11422e-005 -0.823 -2.3 1.6571 6.36111e-015 1.98785e-015 3.97569e-015 -2.2603 21.606 7.4023 -2.1723 -18.1507 13.536 -13.5187 -1.1334 -5.0155 -11.1425 -15.2865 -9.93092 0.0994 -28.0499 -0.2431 -6.82761 -42.3783 -1.92568 -0.0679 -23.3996 -0.1402 62.2539 26.6873 2.73343 -0.7932 -9.0691 2.5189 -1.59028e-015 -5.56597e-015 -3.18055e-015 0.8272 -3.3923 0.5977 -7.62832e-006 2.80517e-005 -1.08047e-005 0.565 -2.3158 0.4082 3.48113e-006 -1.74334e-006 1.25974e-006 -0.916 -9.2044 0.2193 -1.59028e-015 -5.56597e-015 -3.18055e-015 -0.0117 -4.1944 -0.0248 0.0129157 0.00231576 -9.36518e-005 -0.0071 -2.3249 -0.0142 -2.25939e-008 1.04971e-005 2.59784e-006 -0.6113 -8.7231 -2.0637 -1.59028e-015 -5.56597e-015 -3.18055e-015 0.1927 -3.8059 -0.2383 0.016258 0.0030474 -0.00087607 0.1091 -2.1688 -0.1362 7.0107e-006 -2.43729e-005 1.00826e-005 0.6151 -8.0947 -3.564 -1.59028e-015 -5.56597e-015 -3.18055e-015 0.4882 -2.341 -0.6462 0.0145698 0.00368242 -0.00325843 0.3574 -1.7166 -0.4742 1.25931e-006 -6.14406e-007 -1.15307e-006 1.4199 -1.8761 1.4221 -1.59028e-015 -5.56597e-015 -3.18055e-015 1.1472 -3.4929 2.6336 -7.62832e-006 2.80517e-005 -1.08047e-005 0.8229 -2.3 1.6571 3.48113e-006 -1.74334e-006 1.25974e-006 -9.412 3.9771 -0.7758 -105.853 -45.8754 -119.977 -0.7531 -40.938 0 -166.681 40.5213 152.499 -3.55272e-015 -40.1986 -7.10543e-015 20.2435 -33.555 13.2023 -1.77636e-015 -4.4182 9.239 1.98253e-006 -4.91679e-007 -1.52663e-005 9.4119 3.9773 -0.7758 113.359 -34.6281 112.551 0.7532 -40.9383 -7.10543e-015 162.931 49.7277 -150.704 -8.88178e-016 -40.1986 0 -22.5591 -11.8984 -21.1386 0 -4.4182 9.239 -5.67388e-006 1.31182e-007 -2.2557e-006 
-6.04578 10.3175 -5.93806 -1.78606e-007 -4.81472 1.12343e-006 8.88179e-016 8.7983 -4.7612 -0.325652 1.35718 3.02977 -8.88178e-016 8.0291 0.4195 -0.722925 2.69523 6.06973 -8.88179e-016 9.9351 -2.2114 -0.722927 2.69523 6.06974 -4.44089e-016 22.3885 -0.4656 13.6988 -0.358105 -0.150922 -0.0001 12.643 3.4389 1.84709e-006 -0.969661 -2.41663e-006 2.2603 21.606 7.4023 26.9568 6.05051 -85.8596 13.5163 -1.1332 -5.0146 53.0167 -1.018 32.5652 -0.0995 -28.05 -0.2431 5.32857 -74.8443 68.9455 0.0679 -23.3996 -0.1402 -20.4771 13.5048 -30.323 0.7932 -9.069 2.5189 6.36111e-015 1.59028e-015 -7.95139e-016 -0.8272 -3.3923 0.5977 6.36111e-015 -3.97569e-015 3.97569e-015 -0.5649 -2.3158 0.4082 -1.1394e-006 9.25863e-006 -5.58036e-006 0.9159 -9.2044 0.2193 6.36111e-015 1.59028e-015 -7.95139e-016 0.0117 -4.1944 -0.0248 -0.0128339 0.00233952 7.08277e-005 0.0071 -2.3249 -0.0142 4.08286e-031 1.47101e-014 -1.59028e-015 0.6113 -8.7231 -2.0637 6.36111e-015 1.59028e-015 -7.95139e-016 -0.1927 -3.8059 -0.2383 -0.0160799 0.0030067 0.000860427 -0.1091 -2.1688 -0.1362 -6.06912e-032 -4.37326e-015 -7.95139e-016 -0.6151 -8.0947 -3.5641 6.36111e-015 1.59028e-015 -7.95139e-016 -0.4882 -2.341 -0.6462 -0.0125411 0.00312409 0.00280613 -0.3575 -1.7167 -0.4742 -6.72247e-006 5.70319e-007 5.42873e-007 -1.42 -1.8761 1.4223 6.36111e-015 1.59028e-015 -7.95139e-016 -1.1471 -3.4929 2.6334 6.36111e-015 -3.97569e-015 3.97569e-015 -0.823 -2.3 1.6571 -1.1394e-006 9.25863e-006 -5.58036e-006 -2.2603 21.606 7.4023 -2.3853 -19.3367 13.8999 -13.5187 -1.1334 -5.0155 -11.5415 -15.294 -10.0928 0.0994 -28.0499 -0.2431 -6.84406 -42.3723 -1.93758 -0.0679 -23.3996 -0.1402 62.2658 26.6805 2.71919 -0.7932 -9.0691 2.5189 -9.02666e-007 -3.18487e-005 1.15966e-005 0.8272 -3.3923 0.5977 -1.59028e-015 7.95139e-015 4.77083e-015 0.565 -2.3158 0.4082 -1.59028e-015 1.23246e-014 1.59028e-015 -0.916 -9.2044 0.2193 -9.02666e-007 -3.18487e-005 1.15966e-005 -0.0117 -4.1944 -0.0248 0.0129214 0.00234062 -9.61266e-005 -0.0071 -2.3249 -0.0142 -7.26466e-006 2.79794e-006 2.17647e-006 -0.6113 -8.7231 -2.0637 -9.02666e-007 -3.18487e-005 1.15966e-005 0.1927 -3.8059 -0.2383 0.0162942 0.00303304 -0.000869181 0.1091 -2.1688 -0.1362 1.59028e-015 -2.38542e-015 1.59028e-015 0.6151 -8.0947 -3.564 -9.02666e-007 -3.18487e-005 1.15966e-005 0.4882 -2.341 -0.6462 0.0145502 0.00367672 -0.00325806 0.3574 -1.7166 -0.4742 -1.10348e-031 1.98785e-015 3.18055e-015 1.4199 -1.8761 1.4221 -9.02666e-007 -3.18487e-005 1.15966e-005 1.1472 -3.4929 2.6336 -1.59028e-015 7.95139e-015 4.77083e-015 0.8229 -2.3 1.6571 -1.59028e-015 1.23246e-014 1.59028e-015 -9.412 3.9771 -0.7758 -103.07 -45.2652 -117.033 -0.7531 -40.938 0 -166.531 40.804 152.459 -1.77636e-015 -40.1986 -3.55272e-015 19.5962 -33.5916 13.8606 -1.77636e-015 -4.4182 9.239 -4.03218e-006 4.24107e-007 1.02405e-005 9.4119 3.9773 -0.7758 111.796 -33.946 110.691 0.7532 -40.9383 0 162.926 49.736 -150.701 0 -40.1986 0 -21.5422 -11.9265 -21.8493 1.77636e-015 -4.4182 9.239 -1.59028e-015 -4.77083e-015 1.27222e-014 
-6.04697 10.5983 -5.74157 6.48357e-009 -6.63424 -4.72025e-008 0 8.7983 -4.7612 -0.253289 1.97305 3.03282 0 8.0291 0.4195 -0.611287 3.92989 6.07972 -8.88178e-016 9.9351 -2.2114 -0.611288 3.92989 6.07972 0 22.3885 -0.4656 13.3992 -0.716074 -0.304088 -0.0001 12.643 3.4389 4.31872e-008 -1.44867 8.36478e-007 2.2603 21.606 7.4023 26.7251 5.10525 -85.614 13.5163 -1.1332 -5.0146 53.3067 -0.827008 32.6269 -0.0995001 -28.05 -0.2431 5.7994 -74.5861 69.4219 0.0679 -23.3996 -0.1402 -20.6772 13.3199 -30.1864 0.7932 -9.069 2.5189 -2.11948e-006 -6.84033e-007 -9.22633e-006 -0.8272 -3.3923 0.5977 -6.62086e-032 -2.38542e-015 -1.59028e-015 -0.5649 -2.3158 0.4082 5.71326e-006 -4.56459e-006 2.60092e-006 0.9159 -9.2044 0.2193 -2.11948e-006 -6.84033e-007 -9.22633e-006 0.0117 -4.1944 -0.0248 -0.0127855 0.00231589 8.04507e-005 0.0071 -2.3249 -0.0142 -6.36111e-015 -1.19271e-015 -7.95139e-016 0.6113 -8.7231 -2.0637 -2.11948e-006 -6.84033e-007 -9.22633e-006 -0.1927 -3.8059 -0.2383 -0.0160217 0.0030091 0.000871595 -0.1091 -2.1688 -0.1362 -1.00909e-006 -4.55668e-006 3.13848e-006 -0.6151 -8.0947 -3.5641 -2.11948e-006 -6.84033e-007 -9.22633e-006 -0.4882 -2.341 -0.6462 -0.0126337 0.00314971 0.0028514 -0.3575 -1.7167 -0.4742 -5.58929e-006 -1.79964e-005 6.11817e-006 -1.42 -1.8761 1.4223 -2.11948e-006 -6.84033e-007 -9.22633e-006 -1.1471 -3.4929 2.6334 -6.62086e-032 -2.38542e-015 -1.59028e-015 -0.823 -2.3 1.6571 5.71326e-006 -4.56459e-006 2.60092e-006 -2.2603 21.606 7.4023 -2.59231 -20.5264 14.2624 -13.5187 -1.1334 -5.0155 -11.9406 -15.3002 -10.2547 0.0994 -28.0499 -0.2431 -6.8606 -42.3664 -1.94947 -0.0679 -23.3996 -0.1402 62.2777 26.6737 2.70501 -0.7932 -9.0691 2.5189 -7.89655e-006 2.14006e-005 -1.37553e-005 0.8272 -3.3923 0.5977 -3.18055e-015 -2.78299e-015 1.59028e-015 0.565 -2.3158 0.4082 -6.47549e-007 2.64943e-006 1.84514e-006 -0.916 -9.2044 0.2193 -7.89655e-006 2.14006e-005 -1.37553e-005 -0.0117 -4.1944 -0.0248 0.012958 0.0023093 -7.75683e-005 -0.0071 -2.3249 -0.0142 3.21369e-007 -1.91098e-005 -4.72557e-006 -0.6113 -8.7231 -2.0637 -7.89655e-006 2.14006e-005 -1.37553e-005 0.1927 -3.8059 -0.2383 0.0163354 0.00300745 -0.000862133 0.1091 -2.1688 -0.1362 -1.04285e-005 2.72653e-005 -1.14622e-005 0.6151 -8.0947 -3.564 -7.89655e-006 2.14006e-005 -1.37553e-005 0.4882 -2.341 -0.6462 0.0146293 0.00366555 -0.0032606 0.3574 -1.7166 -0.4742 -1.75299e-006 -2.90628e-006 6.29235e-007 1.4199 -1.8761 1.4221 -7.89655e-006 2.14006e-005 -1.37553e-005 1.1472 -3.4929 2.6336 -3.18055e-015 -2.78299e-015 1.59028e-015 0.8229 -2.3 1.6571 -6.47549e-007 2.64943e-006 1.84514e-006 -9.412 3.9771 -0.7758 -100.355 -44.5581 -114.158 -0.7531 -40.938 0 -166.38 41.0857 152.417 -3.55271e-015 -40.1986 3.55271e-015 18.9486 -33.6368 14.5197 -1.77636e-015 -4.4182 9.239 1.62552e-006 -5.36212e-007 -2.45492e-008 9.4119 3.9773 -0.7758 110.269 -33.2201 108.861 0.7532 -40.9383 5.32907e-015 162.921 49.7438 -150.7 0 -40.1986 0 -20.5235 -11.9679 -22.5608 0 -4.4182 9.239 3.2528e-006 -1.07846e-006 -5.13257e-008 
